<svg xmlns="http://www.w3.org/2000/svg" viewBox="0 0 261.56 59.25"><defs><style>.cls-1{fill:#0054a6;}.cls-2{fill:#f7941d;}.cls-3{fill:#fff;}</style></defs><g id="Layer_2" data-name="Layer 2"><g id="Layer_1-2" data-name="Layer 1"><rect class="cls-1" x="202.3" width="59.25" height="59.25"/><polygon class="cls-2" points="248.5 29.9 234.11 29.23 233.47 15.26 233.45 15.26 232.79 29.23 218.43 29.9 218.43 29.93 232.79 30.54 233.45 45.32 233.47 45.32 234.11 30.54 248.5 29.93 248.5 29.9"/><path class="cls-3" d="M228.9,8.55v.63h-.32c-.89,0-1.87.18-1.87,2.68v9.59a14.55,14.55,0,0,0,.12,2.13H226l-10.85-12.1v8.68c0,1.84.35,2.47,2,2.47h.36v.62h-5.59v-.62h.29c1.46,0,1.9-1,1.9-2.67V11.08a1.89,1.89,0,0,0-1.92-1.9h-.27V8.55h4.3l9.38,10.56,0,0v-7.9a1.75,1.75,0,0,0-1.84-2h-.46V8.55Z"/><path class="cls-3" d="M243.47,23.25v-.62h.3c.76,0,1.56-.11,1.56-1.2v-11c0-1.1-.8-1.21-1.56-1.21h-.3V8.55h6.43v.63h-.29c-.76,0-1.56.11-1.56,1.21v11c0,1.09.8,1.2,1.56,1.2h.29v.62Z"/><path class="cls-3" d="M225.9,50.54a12.19,12.19,0,0,1-4.82,1c-4.75,0-8.27-2.59-8.27-7.88,0-4.72,3.82-7.46,8.16-7.46,2.47,0,3.27.76,5.25,1.05l.17,3.52-.63.09c-.59-2.05-1.56-3.73-4.73-3.73-3.45,0-5.27,2.72-5.27,6.41,0,3.51,1.8,7.07,5.78,7.07A4.28,4.28,0,0,0,225.83,47l.6.09Z"/><path class="cls-3" d="M240.4,51.18v-.64h.31c.76,0,1.55-.1,1.55-1.2v-11c0-1.1-.79-1.21-1.55-1.21h-.31v-.62h10.66c0,.9,0,2.29,0,3.22l-.63.17c-.11-1.38-.36-2.47-2.58-2.47H245v5.53h2.51c1.26,0,1.54-.72,1.67-1.86h.63v4.86l-.63.14C249,44.79,249,44,247.49,44H245v4.91c0,1.37,1.23,1.37,2.57,1.37,2.54,0,3.65-.17,4.28-2.58l.6.15c-.28,1.12-.53,2.24-.71,3.36Z"/><path class="cls-3" d="M17.07,34.59l.05-.05V24.68a2.78,2.78,0,0,0-.25-1.3,2.11,2.11,0,0,0-.6-.75,2,2,0,0,0-.75-.35,3.85,3.85,0,0,0-.69-.08h-.58v-.79c.62,0,1.23,0,1.85.06s1.22.05,1.84.05,1.08,0,1.61-.05,1.08-.06,1.62-.06v.79h-.39a4.78,4.78,0,0,0-.84.08,1.41,1.41,0,0,0-.75.42,2.61,2.61,0,0,0-.54,1,6.36,6.36,0,0,0-.21,1.84v12c0,.46,0,.91,0,1.37a10.43,10.43,0,0,0,.13,1.29h-1L4.05,25.07V35.91a7.26,7.26,0,0,0,.11,1.44,2.16,2.16,0,0,0,.38.95,1.48,1.48,0,0,0,.75.53A4.12,4.12,0,0,0,6.52,39H7v.79c-.56,0-1.13,0-1.7-.05s-1.13,0-1.69,0-1.2,0-1.79,0S.6,39.77,0,39.77V39H.37a2,2,0,0,0,1.87-.88,5,5,0,0,0,.5-2.46V24.57a2.18,2.18,0,0,0-.22-1A2.74,2.74,0,0,0,2,22.84a2.27,2.27,0,0,0-.77-.48,2.68,2.68,0,0,0-.88-.16H0v-.79c.51,0,1,0,1.51.06s1,.05,1.51.05.8,0,1.17-.05a11.22,11.22,0,0,1,1.18-.06Z"/><path class="cls-3" d="M21.91,39h.37a5.43,5.43,0,0,0,.69,0,1.55,1.55,0,0,0,.63-.19,1.21,1.21,0,0,0,.45-.45,1.64,1.64,0,0,0,.17-.82V23.7a1.67,1.67,0,0,0-.17-.8,1.17,1.17,0,0,0-.45-.46,1.73,1.73,0,0,0-.63-.2c-.23,0-.47,0-.69,0h-.37v-.79c.51,0,1.12,0,1.84.06s1.4.05,2.05.05,1.37,0,2.1-.05,1.42-.06,2-.06v.79h-.37c-.24,0-.48,0-.71,0a1.81,1.81,0,0,0-.62.2,1.22,1.22,0,0,0-.44.46,1.55,1.55,0,0,0-.18.8V37.48a1.53,1.53,0,0,0,.18.82,1.27,1.27,0,0,0,.44.45,1.61,1.61,0,0,0,.62.19,5.53,5.53,0,0,0,.71,0h.37v.79c-.63,0-1.32,0-2.05-.05s-1.44,0-2.11,0-1.32,0-2,0-1.32.05-1.83.05Z"/><path class="cls-3" d="M47.52,26.83a14.25,14.25,0,0,0-.68-1.8,4.69,4.69,0,0,0-2.74-2.48,7.06,7.06,0,0,0-2.47-.37,6.4,6.4,0,0,0-2.85.6,5.86,5.86,0,0,0-2.05,1.67A7.4,7.4,0,0,0,35.48,27a11.5,11.5,0,0,0-.42,3.19,12.52,12.52,0,0,0,.42,3.24,8.84,8.84,0,0,0,1.31,2.83,7,7,0,0,0,2.25,2,6.44,6.44,0,0,0,3.22.76,5,5,0,0,0,3.49-1.21,6.38,6.38,0,0,0,1.88-3.18l.74.1A18.55,18.55,0,0,0,48,36.85c-.1.7-.18,1.42-.25,2.13a14.85,14.85,0,0,1-2.68.85,15.9,15.9,0,0,1-3.35.34,13.2,13.2,0,0,1-4.1-.61,8.89,8.89,0,0,1-3.27-1.83,8.36,8.36,0,0,1-2.16-3.07,11.12,11.12,0,0,1-.77-4.33,9,9,0,0,1,.82-3.94,8.77,8.77,0,0,1,2.23-2.92,9.89,9.89,0,0,1,3.24-1.82A12,12,0,0,1,41.55,21a10.22,10.22,0,0,1,2,.16,14.72,14.72,0,0,1,1.52.37l1.42.43a10.71,10.71,0,0,0,1.63.36q0,1.1,0,2.19c0,.73.1,1.46.18,2.2Z"/><path class="cls-3" d="M49.79,39h.36a5.58,5.58,0,0,0,.7,0,1.55,1.55,0,0,0,.63-.19,1.29,1.29,0,0,0,.45-.45,1.64,1.64,0,0,0,.17-.82V23.7a1.67,1.67,0,0,0-.17-.8,1.24,1.24,0,0,0-.45-.46,1.73,1.73,0,0,0-.63-.2c-.24,0-.47,0-.7,0h-.36v-.79l1.39,0,1.66,0,1.76,0h3.46l1.8,0,1.71,0,1.5,0c0,.29,0,.6,0,.95v1.08q0,.52,0,1c0,.35,0,.67,0,1l-.79.21a8.89,8.89,0,0,0-.17-1.2,2.38,2.38,0,0,0-.45-1,2.15,2.15,0,0,0-.94-.66,4.68,4.68,0,0,0-1.65-.24H55.47v6.89H58.6a2.69,2.69,0,0,0,1-.15,1.41,1.41,0,0,0,.6-.47,2.14,2.14,0,0,0,.34-.73,5.31,5.31,0,0,0,.17-1h.79c-.05,1-.08,2.06-.08,3.08s0,2,.08,3l-.79.16a10.24,10.24,0,0,0-.13-1.06,2.38,2.38,0,0,0-.27-.83,1.42,1.42,0,0,0-.58-.53,2.58,2.58,0,0,0-1.07-.18H55.47v6.13a1.57,1.57,0,0,0,.26,1,1.45,1.45,0,0,0,.71.52,3.87,3.87,0,0,0,1,.18c.38,0,.78,0,1.21,0,.78,0,1.47,0,2-.08a4.34,4.34,0,0,0,1.5-.4,2.77,2.77,0,0,0,1.06-1A5.69,5.69,0,0,0,64,35.41l.74.18c-.18.7-.34,1.4-.49,2.09s-.28,1.39-.4,2.09H62.37l-1.8,0-1.92,0H54.9l-1.93,0-1.79,0H49.79Z"/><path class="cls-3" d="M106.57,36.67l1.14-3.15a13.25,13.25,0,0,0,.93-3.59c0-.77-.44-1.22-1.31-1.34-.39-.06-.59-.2-.59-.4s.19-.39.57-.39a7.18,7.18,0,0,1,.81.07,12.23,12.23,0,0,0,1.45.07c.37,0,.82,0,1.35-.08l.77-.09c.44,0,.67.14.67.41s-.15.27-.44.34a2.51,2.51,0,0,0-1.59,1.2,48.74,48.74,0,0,0-2.16,5.6q-2.15,6.1-3.11,8.16a7.59,7.59,0,0,1-2.14,2.93,4.08,4.08,0,0,1-2.51.88,2.76,2.76,0,0,1-1.87-.59,1.92,1.92,0,0,1-.67-1.52,1.66,1.66,0,0,1,.48-1.13,1.58,1.58,0,0,1,1.25-.54c.84,0,1.36.5,1.59,1.49.12.5.3.75.55.75.63,0,1.31-.64,2-1.93A6.74,6.74,0,0,0,104.87,41,11,11,0,0,0,104,38.4q-.87-2.07-2.33-5.39a27.8,27.8,0,0,0-1.87-3.8,1.77,1.77,0,0,0-.94-.62c-.36-.07-.55-.2-.55-.39s.24-.4.71-.4c.12,0,.49,0,1.13.1a12.42,12.42,0,0,0,1.51.07c1,0,1.89,0,2.65-.11l.6-.06c.37,0,.56.13.56.38s-.22.4-.67.48a1.17,1.17,0,0,0-.69.38.93.93,0,0,0-.26.58,13.76,13.76,0,0,0,.74,2.32C105.1,33.27,105.75,34.85,106.57,36.67Z"/><path class="cls-3" d="M78.65,36.77a3.12,3.12,0,0,0,.2,1.23,1.36,1.36,0,0,0,.54.65,1.72,1.72,0,0,0,.8.25c.31,0,.63,0,1,0h.42v.79c-.67,0-1.33,0-2,0s-1.32,0-2,0-1.46,0-2.16,0-1.44,0-2.19,0v-.79h.42a4,4,0,0,0,.59,0,1,1,0,0,0,.53-.23,1.28,1.28,0,0,0,.38-.63,3.87,3.87,0,0,0,.15-1.22V24.32a4.37,4.37,0,0,0-.1-1.06,1.25,1.25,0,0,0-.31-.63,1.1,1.1,0,0,0-.55-.3,3.59,3.59,0,0,0-.8-.08h-.31v-.79c.47,0,1,0,1.69.05s1.31,0,2,0,1.34,0,2,0,1.25-.05,1.84-.05a11.14,11.14,0,0,1,2.46.25,5.4,5.4,0,0,1,1.94.83,3.87,3.87,0,0,1,1.29,1.53,5.63,5.63,0,0,1,.45,2.39,5.37,5.37,0,0,1-.38,2.09,4.88,4.88,0,0,1-1,1.61,5.49,5.49,0,0,1-1.6,1.1,6.34,6.34,0,0,1-2,.52,11,11,0,0,1-1.12,0h-1V31h.55a2.62,2.62,0,0,0,1.36-.34,2.75,2.75,0,0,0,1-.93,4.52,4.52,0,0,0,.56-1.41,9.15,9.15,0,0,0,.18-1.8,4.54,4.54,0,0,0-1-3,3.65,3.65,0,0,0-3-1.14h-.76Z"/><path class="cls-3" d="M177.13,31.1a3.91,3.91,0,0,0-.61-1.86,2,2,0,0,0-1.76-.75,2,2,0,0,0-1.23.41,1.36,1.36,0,0,0-.56,1.17,1.7,1.7,0,0,0,.41,1.17,4.16,4.16,0,0,0,1,.82c.41.23.84.46,1.31.68a7.52,7.52,0,0,1,1.3.79,4.23,4.23,0,0,1,1,1.1,3.06,3.06,0,0,1,.41,1.65,3.7,3.7,0,0,1-.4,1.81,3.39,3.39,0,0,1-1,1.19,4.5,4.5,0,0,1-1.44.65,6.3,6.3,0,0,1-1.61.21,5.77,5.77,0,0,1-1.69-.22c-.49-.15-1-.3-1.42-.46l-.23-2.92.73-.16a4.2,4.2,0,0,0,.25,1.06,3.15,3.15,0,0,0,.52.89,2.37,2.37,0,0,0,.77.63,2.21,2.21,0,0,0,1,.24,2.31,2.31,0,0,0,1.37-.44,1.66,1.66,0,0,0,.21-2.35,4.55,4.55,0,0,0-1-.76c-.38-.23-.81-.46-1.27-.69a6.46,6.46,0,0,1-1.28-.81A4.33,4.33,0,0,1,171,33a3.3,3.3,0,0,1-.39-1.69,3.79,3.79,0,0,1,.31-1.57,3.45,3.45,0,0,1,.88-1.18,4.22,4.22,0,0,1,1.33-.75,5,5,0,0,1,1.68-.26,6.72,6.72,0,0,1,1.62.17,12,12,0,0,1,1.49.46c0,.47-.06.94-.08,1.4a10.71,10.71,0,0,0,0,1.39Z"/><path class="cls-3" d="M112.26,39H113a1.31,1.31,0,0,0,.43-.09.7.7,0,0,0,.29-.24.81.81,0,0,0,.11-.45V30.73a.91.91,0,0,0-.09-.46,1,1,0,0,0-.54-.28,3.47,3.47,0,0,1-.46-.13l-.46-.13V29.1c.4-.11.81-.23,1.23-.37l1.16-.39c.3-.11.6-.24.91-.39s.61-.28.91-.4l.28.23v1.69c.28-.18.59-.38.91-.61a10.62,10.62,0,0,1,1-.63,8.73,8.73,0,0,1,1.08-.49,3.24,3.24,0,0,1,1.08-.19,3.66,3.66,0,0,1,1.91.47,2.89,2.89,0,0,1,1.19,1.47l1-.65c.36-.23.72-.44,1.08-.64a7.21,7.21,0,0,1,1.08-.47,3.32,3.32,0,0,1,1.06-.18,3.39,3.39,0,0,1,2.36.83,3.25,3.25,0,0,1,.93,2.56v7.23q0,.53.33.66a2.69,2.69,0,0,0,.86.16H133v.76c-.49,0-1-.06-1.48-.08s-1,0-1.47,0-1,0-1.56,0-1,0-1.54.08V39h.37a2.32,2.32,0,0,0,.86-.13.6.6,0,0,0,.35-.63V31.68A2.24,2.24,0,0,0,128,30a2,2,0,0,0-1.51-.52,3.37,3.37,0,0,0-1.27.27,8,8,0,0,0-1.12.52v7.87c0,.35.11.57.34.67a2.4,2.4,0,0,0,.87.14h.34v.79c-.49,0-1-.06-1.47-.08s-1,0-1.48,0-1,0-1.56,0-1,0-1.56.08V39h.31a2.56,2.56,0,0,0,.89-.14.63.63,0,0,0,.37-.67V31.68a2.29,2.29,0,0,0-.51-1.67,2,2,0,0,0-1.51-.52,3.13,3.13,0,0,0-1.28.3,5.36,5.36,0,0,0-1.12.68v7.68a.81.81,0,0,0,.12.46.8.8,0,0,0,.32.25,1.43,1.43,0,0,0,.42.09h.78v.79c-.51,0-1-.06-1.52-.08s-1,0-1.51,0-1.07,0-1.59,0-1,0-1.51.08Z"/><path class="cls-3" d="M144.74,36.86a9.49,9.49,0,0,1-.92,1.29,6.47,6.47,0,0,1-1.17,1.05,5.22,5.22,0,0,1-1.4.69,4.81,4.81,0,0,1-1.56.25,4.5,4.5,0,0,1-2.2-.52,5,5,0,0,1-1.6-1.38,6.22,6.22,0,0,1-1-1.94,7.62,7.62,0,0,1,.08-4.62,7.09,7.09,0,0,1,1.16-2.11A5.71,5.71,0,0,1,138,28.1a5.19,5.19,0,0,1,2.42-.55,4.25,4.25,0,0,1,1.8.35,3.64,3.64,0,0,1,1.3,1,4.15,4.15,0,0,1,.79,1.45,5.68,5.68,0,0,1,.24,1.82l-.32.29h-7.1a8,8,0,0,0,.24,2,5.49,5.49,0,0,0,.73,1.71,4.07,4.07,0,0,0,1.27,1.21,3.54,3.54,0,0,0,1.84.46,4,4,0,0,0,3.13-1.42Zm-4.58-5.21H141a1.08,1.08,0,0,0,.5-.12.53.53,0,0,0,.22-.29,2.44,2.44,0,0,0,0-.55,2.68,2.68,0,0,0-.12-.77,2.05,2.05,0,0,0-.35-.71,1.89,1.89,0,0,0-.58-.51,1.57,1.57,0,0,0-.79-.2,2.16,2.16,0,0,0-1.08.27,2.55,2.55,0,0,0-.81.69,3.86,3.86,0,0,0-.57,1,6.09,6.09,0,0,0-.33,1.18Z"/><path class="cls-3" d="M145.84,39h.72a1.37,1.37,0,0,0,.44-.09.76.76,0,0,0,.29-.24.81.81,0,0,0,.1-.45V30.73a.91.91,0,0,0-.09-.46,1,1,0,0,0-.54-.28,3.47,3.47,0,0,1-.46-.13l-.46-.13V29.1c.41-.11.82-.23,1.24-.37l1.15-.39a8.89,8.89,0,0,0,.91-.39c.31-.14.61-.28.91-.4l.29.23v1.69l.89-.63c.32-.23.65-.44,1-.64a6.23,6.23,0,0,1,1.06-.47,3.75,3.75,0,0,1,1.16-.18,3.53,3.53,0,0,1,2.34.77,3.24,3.24,0,0,1,.92,2.62v7.28c0,.37.14.59.41.65A4.1,4.1,0,0,0,159,39h.32v.79c-.51,0-1-.06-1.49-.08s-1,0-1.48,0-1.05,0-1.57,0-1,0-1.56.08V39h.68a1.65,1.65,0,0,0,.42-.08.83.83,0,0,0,.32-.2.57.57,0,0,0,.13-.39V31.7A2.24,2.24,0,0,0,154.2,30a2.07,2.07,0,0,0-1.44-.5,3.17,3.17,0,0,0-1.32.3,9.75,9.75,0,0,0-1.1.6v7.94c0,.32.13.5.38.55a4.56,4.56,0,0,0,.88.08h.4v.79c-.51,0-1-.06-1.5-.08s-1,0-1.5,0-1.08,0-1.61,0-1,0-1.55.08Z"/><path class="cls-3" d="M168.09,29.41H165v7.21a1.28,1.28,0,0,0,.42,1.13,1.71,1.71,0,0,0,1,.29,2.6,2.6,0,0,0,.85-.12,3.87,3.87,0,0,0,.71-.35l.34.44a7,7,0,0,1-1.59,1.54,3.36,3.36,0,0,1-2,.59,3.06,3.06,0,0,1-1.26-.22,2.27,2.27,0,0,1-.81-.59,2.09,2.09,0,0,1-.45-.86,3.83,3.83,0,0,1-.13-1v-8h-1.58v-.63a10.65,10.65,0,0,0,2.19-1.6,18.55,18.55,0,0,0,2-2.16l.31.16v2.76h3.13Z"/><path class="cls-3" d="M93.61,36.89a2.93,2.93,0,0,1-2.24,1.39,1.48,1.48,0,0,1-1.6-1.7c0-1.82,2.41-2.32,3.84-2.78Zm0-4L90.37,34c-1.85.68-3.51,1.3-3.51,3.34a2.62,2.62,0,0,0,2.84,2.68,5.64,5.64,0,0,0,4-2.06c.11,1.2.74,2.06,2,2.06a3.37,3.37,0,0,0,2.73-1.64l-.33-.47a1.37,1.37,0,0,1-.74.34c-.73,0-.8-.8-.8-1.93V31c0-2.27-1.23-3.47-3.52-3.47a2.72,2.72,0,0,0-1.56.36c-1,.57-2,1.07-2.82,1.52a2.44,2.44,0,0,0-1.43,2.18c0,.39.2.6.49.6s1.8-.33,1.85-1c.1-1.46.5-1.85,2-1.85a1.88,1.88,0,0,1,2.06,2.11Z"/></g></g></svg>